<mxfile host="app.diagrams.net" modified="2024-05-31T00:25:36.405Z" agent="Mozilla/5.0 (X11; Ubuntu; Linux x86_64; rv:126.0) Gecko/20100101 Firefox/126.0" version="24.4.10" etag="vdLj9seh6CulbIw4KZmU" type="github">
  <diagram name="Page-1" id="fIXt2Z8RBO4ACJ6_SiIg">
    <mxGraphModel>
      <root>
        <mxCell id="0" />
        <mxCell id="1" parent="0" />
      </root>
    </mxGraphModel>
  </diagram>
</mxfile>
